<svg width="180" height="180" viewBox="0 0 180 180" fill="none" xmlns="http://www.w3.org/2000/svg">
<path d="M160 0C171.046 0 180 8.95431 180 20V160C180 171.046 171.046 180 160 180H20C8.95431 180 8.05374e-08 171.046 0 160V20C0 8.95431 8.95431 8.05322e-08 20 0H160ZM47 17V162.017H87.668C124.567 162.017 132.304 147.931 132.304 120.356C132.304 104.288 129.129 93.3769 115.441 86.4336C127.939 79.8871 130.915 70.7612 130.915 54.4941C130.915 32.8707 122.98 17 86.0811 17H47ZM85.0889 98.3359C94.2144 98.3359 100.364 102.304 100.364 114.405V123.134C100.364 133.053 95.4047 138.211 84.8906 138.211H78.7412V98.3359H85.0889ZM83.8984 40.6074C93.8175 40.6074 98.7773 45.9638 98.7773 55.8828V59.2549C98.7773 71.3559 92.8261 75.5223 84.0977 75.5225H78.7412V40.6074H83.8984Z" fill="white"/>
</svg>
