<svg width="250" height="269" viewBox="0 0 250 269" fill="none" xmlns="http://www.w3.org/2000/svg">
<path d="M228.707 69.5552H86.3915C80.6396 69.5552 75.9767 74.218 75.9767 79.97V118.53C75.9767 124.282 80.6396 128.944 86.3915 128.944H185.083C190.834 128.944 195.497 133.607 195.497 139.359V198.785C195.497 204.537 190.834 209.2 185.083 209.2H10.623C4.87111 209.2 0.208252 213.863 0.208252 219.615V258.175C0.208252 263.927 4.8711 268.59 10.623 268.59H228.707C240.211 268.59 249.536 259.264 249.536 247.76V90.3847C249.536 78.8809 240.211 69.5552 228.707 69.5552Z" fill="black" stroke="black" stroke-width="0.416591"/>
<path d="M163.967 0H10.6228C4.87086 0 0.208008 4.66285 0.208008 10.4148V188.085C0.208008 193.836 4.87086 198.499 10.6228 198.499H174.382C180.133 198.499 184.796 193.836 184.796 188.085V150.06C184.796 144.308 180.133 139.645 174.382 139.645H75.4094C69.6574 139.645 64.9946 134.982 64.9946 129.23V69.269C64.9946 63.5171 69.6574 58.8543 75.4094 58.8543H174.382C180.133 58.8543 184.796 54.1914 184.796 48.4395V20.8296C184.796 9.32571 175.471 0 163.967 0Z" fill="black"/>
<circle cx="219.839" cy="29.701" r="29.7005" fill="black"/>
</svg>
