<?xml version="1.0" encoding="UTF-8"?>
<svg id="Layer_2" data-name="Layer 2" xmlns="http://www.w3.org/2000/svg" viewBox="0 0 792.65 248.77">
  <defs>
    <style>
      .cls-1 {
        fill: #fff;
      }
    </style>
  </defs>
  <g id="Object">
    <g id="H-Guide">
      <g>
        <g>
          <path class="cls-1" d="M268.1,68.77V0h69.29c.87.35,1.73.91,2.6,1.69.87.78,1.39,1.52,1.56,2.21v10.92c0,1.73-.07,3.62-.2,5.65-.13,2.04-.63,3.66-1.5,4.88-1.47,2.17-2.71,3.94-3.71,5.33-1,1.39-1.88,2.6-2.67,3.64.95.95,1.91,2.12,2.86,3.51.95,1.39,1.91,2.86,2.86,4.42l.65,1.04c.87,1.3,1.37,2.97,1.5,5,.13,2.04.2,3.92.2,5.65v10.92c-.17.69-.7,1.43-1.56,2.21-.87.78-1.73,1.34-2.6,1.69h-69.29ZM315.16,17.16h-22.49v34.45h22.49c.78,0,1.17-.78,1.17-2.34-1.56-2.6-3.03-4.85-4.42-6.76-1.39-1.91-3.21-4.12-5.46-6.63-.43-.26-.65-.69-.65-1.3,0-.26.04-.5.13-.72.08-.22.17-.5.26-.85,1.73-2.42,3.42-4.59,5.07-6.5,1.64-1.91,3.33-4.29,5.07-7.15,0-.61-.09-1.13-.26-1.56-.17-.43-.48-.65-.91-.65Z"/>
          <path class="cls-1" d="M349.87,64.22V4.42c.61-2.08,1.99-3.55,4.16-4.42h64.87c1.82.69,3.21,2.17,4.16,4.42v59.8c-.43,1.21-1,2.17-1.69,2.86-.7.69-1.52,1.26-2.47,1.69h-64.87c-2.25-1.21-3.64-2.73-4.16-4.55ZM375.22,51.09c.26.26.61.43,1.04.52h20.28c.61-.35,1.02-.67,1.24-.98.21-.3.41-.67.58-1.1v-30.29c-.44-1.3-1.04-1.99-1.82-2.08h-20.28c-1.04.35-1.65,1.04-1.82,2.08v30.29c.26.78.52,1.3.78,1.56Z"/>
          <path class="cls-1" d="M435.54,68.77c-2.25-1.21-3.64-2.73-4.16-4.55V4.42c.61-2.08,1.99-3.55,4.16-4.42h60.06c.95,0,1.73.78,2.34,2.34.61,1.56,1.11,3.34,1.5,5.33.39,1.99.65,3.92.78,5.79.13,1.86.2,3.1.2,3.7h-42.64c-1.04.35-1.65,1.04-1.82,2.08v30.29c.26.78.52,1.3.78,1.56s.61.43,1.04.52h20.28c.61-.35,1.02-.67,1.24-.98.21-.3.41-.67.58-1.1v-14.82h24.7v29.51c-.43,1.21-1,2.17-1.69,2.86-.7.69-1.52,1.26-2.47,1.69h-64.87Z"/>
          <path class="cls-1" d="M560.28,44c-.3-.91-.85-1.37-1.62-1.37h-41.6c-1.82-.69-3.21-2.08-4.16-4.16V4.42c.52-1.99,1.91-3.47,4.16-4.42h71.76c-.87,2.43-2.14,4.98-3.83,7.67-1.69,2.69-4.01,5.85-6.95,9.49h-38.87c-.35,0-.61.17-.78.52-.17.35-.3.78-.39,1.3-.09.52-.15,1.04-.2,1.56-.04.52-.07.91-.07,1.17v1.3c0,.61.07,1.28.2,2.01.13.74.54,1.11,1.24,1.11h41.99c2.08,1.13,3.42,2.64,4.03,4.55v33.54c-.52,2.17-1.86,3.68-4.03,4.55h-71.89c1.39-2.95,2.75-5.89,4.09-8.84,1.34-2.95,3.14-5.72,5.4-8.32h40.82c.52-.35.85-1.08.98-2.21.13-1.12.2-1.95.2-2.47v-.65c0-.6-.15-1.36-.46-2.27Z"/>
          <path class="cls-1" d="M272.27,158.77c-2.25-1.21-3.64-2.73-4.16-4.55v-59.8c.61-2.08,1.99-3.55,4.16-4.42h60.06c.95,0,1.73.78,2.34,2.34.61,1.56,1.11,3.34,1.5,5.33.39,1.99.65,3.92.78,5.79.13,1.86.2,3.1.2,3.7h-42.64c-1.04.35-1.65,1.04-1.82,2.08v30.29c.26.78.52,1.3.78,1.56s.61.43,1.04.52h20.28c.61-.35,1.02-.67,1.24-.98.21-.3.41-.67.58-1.1v-14.82h24.7v29.51c-.43,1.21-1,2.17-1.69,2.86-.7.69-1.52,1.26-2.47,1.69h-64.87Z"/>
          <path class="cls-1" d="M418.9,90c.87.35,1.73.91,2.6,1.69.87.78,1.39,1.52,1.56,2.21v10.92c0,1.73-.07,3.62-.2,5.65-.13,2.04-.63,3.66-1.5,4.88-2.17,3.12-3.92,5.63-5.26,7.54-1.34,1.91-2.41,3.38-3.19,4.42-.78,1.04-1.32,1.78-1.62,2.21-.3.43-.46.69-.46.78v.78l14.95,27.69h-26l-15.99-25.61c-.43-.69-.74-1.28-.91-1.75-.17-.48-.26-.93-.26-1.36,0-.69.43-1.6,1.3-2.73,2.95-3.12,5.48-6.15,7.6-9.1,2.12-2.95,4.22-5.89,6.3-8.84,0-.61-.09-1.13-.26-1.56-.17-.43-.48-.65-.91-.65h-22.49v51.61h-24.57v-68.77h69.29Z"/>
          <path class="cls-1" d="M430.47,153.44l24.83-59.15c.26-.69.61-1.47,1.04-2.34.43-.87,1.08-1.52,1.95-1.95h28.47c.26,0,.56.17.91.52.34.35.69.76,1.04,1.24.34.48.63.93.84,1.37.21.43.37.78.46,1.04l25.48,64.61h-26l-5.72-14.95c-.96,2.08-2.25,4.46-3.9,7.15-1.65,2.69-3.38,5.29-5.2,7.8h-43.94c-.26,0-.5-.24-.71-.71-.22-.48-.33-.93-.33-1.37.08-1.12.35-2.21.78-3.25ZM482.99,141.61l-10.27-30.03-11.57,30.03h21.84Z"/>
          <path class="cls-1" d="M591.15,90c.87.35,1.73.91,2.6,1.69.87.78,1.39,1.52,1.56,2.21v10.92c0,1.73-.07,3.62-.2,5.65-.13,2.04-.63,3.66-1.5,4.88-2.17,3.12-3.92,5.63-5.26,7.54-1.34,1.91-2.41,3.38-3.19,4.42-.78,1.04-1.32,1.78-1.62,2.21-.3.43-.46.69-.46.78l-3.12,2.86h-23.92c-.43-.69-.74-1.28-.91-1.75-.17-.48-.26-.93-.26-1.36,0-.69.43-1.6,1.3-2.73,2.95-3.12,5.57-6.17,7.86-9.17,2.3-2.99,4.31-5.92,6.04-8.77,0-.61-.09-1.13-.26-1.56-.17-.43-.48-.65-.91-.65h-22.49v51.61h-24.57v-68.77h69.29Z"/>
          <path class="cls-1" d="M652.25,158.77v-35.75c-.35.87-.91,1.87-1.69,2.99-.78,1.13-1.6,2.17-2.47,3.12-.87.95-1.69,1.78-2.47,2.47-.78.69-1.3,1.04-1.56,1.04h-15.86v26.13h-24.57v-68.77h24.57v26.13h24.05v-26.13h24.7v68.77h-24.7Z"/>
          <path class="cls-1" d="M685.4,90h24.57v68.77h-24.57v-68.77Z"/>
          <path class="cls-1" d="M719.07,158.77v-14.82c0-1.73.07-3.62.2-5.65.13-2.04.67-3.71,1.62-5,2.17-3.03,3.92-5.5,5.26-7.41,1.34-1.91,2.41-3.4,3.19-4.49.78-1.08,1.3-1.82,1.56-2.21.26-.39.43-.67.52-.84v-.65l-14.95-27.69h26l12.09,19.37,12.09-19.37h26l-14.95,27.69v.65c0,.09.15.35.45.78.3.43.85,1.19,1.62,2.27.78,1.08,1.84,2.58,3.19,4.49,1.34,1.91,3.1,4.38,5.26,7.41.87,1.3,1.37,2.97,1.5,5,.13,2.04.2,3.92.2,5.65v14.82h-25.22v-19.5c-2.86-4.5-6.24-9.06-10.14-13.65-1.99,2.25-3.86,4.53-5.59,6.82-1.73,2.3-3.25,4.57-4.55,6.82v19.5h-25.35Z"/>
          <path class="cls-1" d="M317.18,224c-.3-.91-.85-1.37-1.62-1.37h-41.6c-1.82-.69-3.21-2.08-4.16-4.16v-34.06c.52-1.99,1.91-3.47,4.16-4.42h71.76c-.87,2.43-2.14,4.98-3.83,7.67-1.69,2.69-4.01,5.85-6.95,9.49h-38.87c-.35,0-.61.17-.78.52-.17.35-.3.78-.39,1.3-.09.52-.15,1.04-.2,1.56-.04.52-.07.91-.07,1.17v1.3c0,.61.07,1.28.2,2.01.13.74.54,1.11,1.24,1.11h41.99c2.08,1.13,3.42,2.64,4.03,4.55v33.54c-.52,2.17-1.86,3.68-4.03,4.55h-71.89c1.39-2.95,2.75-5.89,4.09-8.84,1.34-2.95,3.14-5.72,5.4-8.32h40.82c.52-.35.85-1.08.98-2.21.13-1.12.2-1.95.2-2.47v-.65c0-.6-.15-1.36-.46-2.27Z"/>
          <path class="cls-1" d="M399.53,197.16v51.61h-24.7v-51.61h-24.7c.78-2.77,1.73-5.59,2.86-8.45,1.12-2.86,2.55-5.76,4.29-8.71h67.34c-1.13,2.77-2.49,5.57-4.09,8.38-1.61,2.82-3.4,5.74-5.4,8.77h-15.6Z"/>
          <path class="cls-1" d="M455.56,229.53c.26.78.52,1.3.78,1.56s.61.43,1.04.52h20.28c.61-.35,1.02-.67,1.24-.98.21-.3.41-.67.58-1.1v-49.53h24.7v64.22c-.43,1.21-1,2.17-1.69,2.86-.7.69-1.52,1.26-2.47,1.69h-64.87c-2.25-1.21-3.64-2.73-4.16-4.55v-64.22h24.57v49.53Z"/>
          <path class="cls-1" d="M517.7,180h66.82c1.82.69,3.21,2.17,4.16,4.42v59.8c-.43,1.21-1,2.17-1.69,2.86-.7.69-1.52,1.26-2.47,1.69h-66.82v-51.61h-7.15c.87-3.03,1.84-6,2.92-8.9,1.08-2.9,2.49-5.66,4.23-8.25ZM542.27,197.16v34.45h19.89c.95-.69,1.56-1.39,1.82-2.08v-30.29c-.43-1.3-1.04-1.99-1.82-2.08h-19.89Z"/>
          <path class="cls-1" d="M597.13,180h24.57v68.77h-24.57v-68.77Z"/>
          <path class="cls-1" d="M630.15,244.22v-59.8c.61-2.08,1.99-3.55,4.16-4.42h64.87c1.82.69,3.21,2.17,4.16,4.42v59.8c-.43,1.21-1,2.17-1.69,2.86-.7.69-1.52,1.26-2.47,1.69h-64.87c-2.25-1.21-3.64-2.73-4.16-4.55ZM655.5,231.09c.26.26.61.43,1.04.52h20.28c.61-.35,1.02-.67,1.24-.98.21-.3.41-.67.58-1.1v-30.29c-.44-1.3-1.04-1.99-1.82-2.08h-20.28c-1.04.35-1.65,1.04-1.82,2.08v30.29c.26.78.52,1.3.78,1.56Z"/>
        </g>
        <path class="cls-1" d="M169.78,132.05h-104.91c-6.61,0-12-5.38-12-12v-52.58c0-6.61,5.38-12,12-12h104.91c4.41,0,8-3.59,8-8v-28.06c0-9.92-8.07-17.99-17.99-17.99H8C3.59,1.44,0,5.02,0,9.43v163.09c0,4.41,3.59,8,8,8h161.78c4.41,0,8-3.59,8-8v-32.47c0-4.41-3.59-8-8-8Z"/>
        <path class="cls-1" d="M222.91,69.56H74.82c-4.41,0-8,3.59-8,8v32.48c0,4.41,3.59,8,8,8h105.04c6.61,0,12,5.38,12,12v52.44c0,6.61-5.38,12-12,12h-62.58s-109.28,0-109.28,0c-4.41,0-8,3.59-8,8v36.89c0,4.41,3.59,8,8,8h214.91c12.68,0,22.99-10.31,22.99-22.99V92.55c0-12.68-10.31-22.99-22.99-22.99Z"/>
        <path class="cls-1" d="M218.88,1.44c-14.9,0-27.02,12.12-27.02,27.02s12.12,27.02,27.02,27.02,27.02-12.12,27.02-27.02S233.78,1.44,218.88,1.44Z"/>
      </g>
    </g>
  </g>
</svg>