<svg width="800" height="271" viewBox="0 0 800 271" fill="none" xmlns="http://www.w3.org/2000/svg">
<path d="M228.499 69.5552H86.1835C80.4316 69.5552 75.7687 74.218 75.7687 79.97V118.53C75.7687 124.282 80.4316 128.944 86.1835 128.944H184.875C190.626 128.944 195.289 133.607 195.289 139.359V198.785C195.289 204.537 190.626 209.2 184.875 209.2H10.415C4.6631 209.2 0.000244141 213.863 0.000244141 219.615V258.175C0.000244141 263.927 4.66309 268.59 10.415 268.59H228.499C240.003 268.59 249.328 259.264 249.328 247.76V90.3847C249.328 78.8809 240.003 69.5552 228.499 69.5552Z" fill="white"/>
<path d="M163.759 0H10.4148C4.66286 0 0 4.66285 0 10.4148V188.085C0 193.836 4.66285 198.499 10.4148 198.499H174.174C179.925 198.499 184.588 193.836 184.588 188.085V150.06C184.588 144.308 179.925 139.645 174.174 139.645H75.2014C69.4494 139.645 64.7866 134.982 64.7866 129.23V69.269C64.7866 63.5171 69.4494 58.8543 75.2014 58.8543H174.174C179.925 58.8543 184.588 54.1914 184.588 48.4395V20.8296C184.588 9.32571 175.263 0 163.759 0Z" fill="white"/>
<circle cx="219.631" cy="29.701" r="29.7005" fill="white"/>
<path d="M639.789 270.112C637.507 268.883 636.103 267.347 635.576 265.503V204.933C636.19 202.827 637.595 201.334 639.789 200.457H705.495C707.338 201.159 708.742 202.651 709.708 204.933V265.503C709.269 266.732 708.699 267.698 707.996 268.4C707.294 269.102 706.46 269.673 705.495 270.112H639.789ZM660.462 250.624C660.726 251.414 660.989 251.941 661.252 252.204C661.516 252.468 661.867 252.643 662.306 252.731H682.847C683.461 252.38 683.856 252.073 684.032 251.809C684.295 251.458 684.515 251.063 684.69 250.624V219.944C684.251 218.627 683.637 217.925 682.847 217.837H662.306C661.252 218.189 660.638 218.891 660.462 219.944V250.624Z" fill="white"/>
<path d="M602.146 270.112V200.457H627.033V270.112H602.146Z" fill="white"/>
<path d="M521.643 200.457H589.323C591.167 201.159 592.571 202.651 593.537 204.933V265.503C593.098 266.732 592.527 267.698 591.825 268.4C591.123 269.102 590.289 269.673 589.323 270.112H521.643V217.837H514.401C515.279 214.765 516.245 211.78 517.298 208.884C518.439 205.899 519.888 203.09 521.643 200.457ZM546.529 217.837V252.731H566.675C567.641 252.029 568.256 251.326 568.519 250.624V219.944C568.08 218.627 567.466 217.925 566.675 217.837H546.529Z" fill="white"/>
<path d="M458.708 250.624C458.971 251.414 459.235 251.941 459.498 252.204C459.761 252.468 460.112 252.643 460.551 252.731H481.092C481.707 252.38 482.102 252.073 482.277 251.809C482.541 251.458 482.76 251.063 482.936 250.624V200.457H507.954V265.503C507.515 266.732 506.944 267.698 506.242 268.4C505.54 269.102 504.706 269.673 503.74 270.112H438.035C435.753 268.883 434.348 267.347 433.822 265.503V200.457H458.708V250.624Z" fill="white"/>
<path d="M401.901 217.837V270.112H376.883V217.837H351.865C352.655 215.028 353.62 212.175 354.762 209.279C355.903 206.382 357.351 203.441 359.107 200.457H427.314C426.172 203.266 424.768 206.118 423.1 209.015C421.52 211.824 419.72 214.765 417.701 217.837H401.901Z" fill="white"/>
<path d="M318.885 247.332C318.885 246.718 318.709 245.972 318.358 245.094C318.095 244.128 317.568 243.645 316.778 243.645H274.642C272.799 242.943 271.394 241.539 270.429 239.432V204.933C270.955 202.914 272.36 201.422 274.642 200.457H347.326C346.448 202.914 345.132 205.504 343.376 208.225C341.708 210.947 339.382 214.151 336.397 217.837H297.027C296.676 217.837 296.412 218.013 296.237 218.364C296.061 218.715 295.93 219.154 295.842 219.681C295.754 220.208 295.666 220.734 295.578 221.261C295.578 221.788 295.578 222.183 295.578 222.446V223.763C295.578 224.377 295.622 225.079 295.71 225.87C295.886 226.572 296.325 226.923 297.027 226.923H339.557C341.664 228.064 343.025 229.6 343.639 231.531V265.503C343.113 267.698 341.752 269.234 339.557 270.112H266.742C268.146 267.127 269.507 264.143 270.824 261.158C272.228 258.173 274.072 255.364 276.354 252.731H317.7C318.226 252.38 318.533 251.634 318.621 250.492C318.797 249.351 318.885 248.517 318.885 247.991V247.332Z" fill="white"/>
<path d="M725.473 171.591V156.58C725.473 154.824 725.517 152.937 725.605 150.918C725.781 148.811 726.351 147.1 727.317 145.783C729.511 142.71 731.267 140.209 732.584 138.277C733.988 136.346 735.085 134.854 735.875 133.801C736.666 132.659 737.192 131.913 737.456 131.562C737.719 131.123 737.895 130.816 737.982 130.64V129.982L722.84 101.936H749.175L761.42 121.555L773.666 101.936H800L784.858 129.982V130.64C784.858 130.728 784.99 130.991 785.253 131.43C785.604 131.869 786.175 132.659 786.965 133.801C787.755 134.854 788.808 136.346 790.125 138.277C791.53 140.209 793.329 142.71 795.524 145.783C796.401 147.1 796.884 148.811 796.972 150.918C797.148 152.937 797.235 154.824 797.235 156.58V171.591H771.691V151.84C768.794 147.275 765.37 142.667 761.42 138.014C759.401 140.296 757.514 142.623 755.758 144.993C754.003 147.275 752.466 149.557 751.15 151.84V171.591H725.473Z" fill="white"/>
<path d="M691.387 171.591V101.936H716.273V171.591H691.387Z" fill="white"/>
<path d="M657.818 171.591V135.381C657.467 136.258 656.897 137.268 656.107 138.409C655.317 139.55 654.483 140.604 653.605 141.569C652.727 142.535 651.893 143.369 651.103 144.071C650.313 144.773 649.786 145.124 649.523 145.124H633.459V171.591H608.573V101.936H633.459V128.402H657.818V101.936H682.836V171.591H657.818Z" fill="white"/>
<path d="M525.762 101.936H595.944C596.822 102.287 597.7 102.857 598.578 103.647C599.456 104.437 599.982 105.183 600.158 105.886V116.946C600.158 118.702 600.07 120.633 599.895 122.74C599.807 124.759 599.324 126.383 598.446 127.612C596.252 130.772 594.452 133.318 593.048 135.249C591.731 137.18 590.677 138.672 589.887 139.726C589.097 140.779 588.527 141.525 588.176 141.964C587.912 142.403 587.781 142.667 587.781 142.754L584.62 145.651H560.393C559.954 144.949 559.646 144.378 559.471 143.939C559.295 143.413 559.208 142.93 559.208 142.491C559.208 141.789 559.646 140.867 560.524 139.726C563.509 136.566 566.142 133.493 568.425 130.509C570.795 127.436 572.858 124.452 574.613 121.555C574.613 120.94 574.526 120.414 574.35 119.975C574.174 119.536 573.867 119.316 573.428 119.316H550.649V171.591H525.762V101.936Z" fill="white"/>
<path d="M432.362 169.484C432.45 168.343 432.713 167.246 433.152 166.192L458.302 106.281C458.565 105.579 458.916 104.788 459.355 103.911C459.794 103.033 460.453 102.374 461.33 101.936H490.167C490.43 101.936 490.738 102.111 491.089 102.462C491.44 102.813 491.791 103.252 492.142 103.779C492.493 104.218 492.757 104.657 492.932 105.096C493.195 105.535 493.371 105.886 493.459 106.149L519.267 171.591H492.932L487.138 156.448C486.173 158.555 484.856 160.969 483.188 163.69C481.52 166.412 479.765 169.045 477.921 171.591H433.416C433.152 171.591 432.889 171.371 432.626 170.932C432.45 170.406 432.362 169.923 432.362 169.484ZM464.227 154.21H486.348L475.946 123.793L464.227 154.21Z" fill="white"/>
<path d="M351.27 101.936H421.452C422.33 102.287 423.207 102.857 424.085 103.647C424.963 104.437 425.49 105.183 425.665 105.886V116.946C425.665 118.702 425.577 120.633 425.402 122.74C425.314 124.759 424.831 126.383 423.954 127.612C421.759 130.772 419.959 133.318 418.555 135.249C417.238 137.18 416.185 138.672 415.395 139.726C414.605 140.779 414.034 141.525 413.683 141.964C413.42 142.403 413.288 142.667 413.288 142.754V143.544L428.43 171.591H402.096L385.9 145.651C385.461 144.949 385.154 144.378 384.978 143.939C384.803 143.413 384.715 142.93 384.715 142.491C384.715 141.789 385.154 140.867 386.032 139.726C389.016 136.566 391.562 133.493 393.669 130.509C395.863 127.524 398.014 124.539 400.121 121.555C400.121 120.94 400.033 120.414 399.857 119.975C399.682 119.536 399.374 119.316 398.936 119.316H376.156V171.591H351.27V101.936Z" fill="white"/>
<path d="M272.93 171.591C270.647 170.362 269.243 168.826 268.716 166.982V106.412C269.331 104.306 270.735 102.813 272.93 101.936H333.763C334.728 101.936 335.518 102.726 336.133 104.306C336.747 105.886 337.23 107.685 337.581 109.704C338.02 111.723 338.284 113.698 338.371 115.63C338.547 117.473 338.635 118.702 338.635 119.316H295.446C294.392 119.668 293.778 120.37 293.602 121.423V152.103C293.866 152.893 294.129 153.42 294.392 153.683C294.656 153.947 295.007 154.122 295.446 154.21H315.987C316.601 153.859 316.996 153.552 317.172 153.288C317.435 152.937 317.655 152.542 317.83 152.103V137.092H342.848V166.982C342.409 168.211 341.839 169.177 341.136 169.879C340.434 170.581 339.6 171.152 338.635 171.591H272.93Z" fill="white"/>
<path d="M565.129 50.2903C565.129 49.6758 564.953 48.9297 564.602 48.0519C564.339 47.0862 563.812 46.6034 563.022 46.6034H520.887C519.043 45.9012 517.639 44.4967 516.673 42.3899V7.89145C517.2 5.87246 518.604 4.38016 520.887 3.41455H593.57C592.693 5.87245 591.376 8.46203 589.62 11.1833C587.952 13.9045 585.626 17.1086 582.642 20.7954H543.271C542.92 20.7954 542.657 20.971 542.481 21.3221C542.306 21.6733 542.174 22.1122 542.086 22.6389C541.998 23.1656 541.911 23.6923 541.823 24.219C541.823 24.7457 541.823 25.1407 541.823 25.404V26.7208C541.823 27.3352 541.867 28.0375 541.954 28.8275C542.13 29.5298 542.569 29.8809 543.271 29.8809H585.802C587.909 31.0221 589.269 32.5583 589.884 34.4895V68.4612C589.357 70.6558 587.996 72.192 585.802 73.0698H512.986C514.391 70.0852 515.751 67.1006 517.068 64.116C518.473 61.1314 520.316 58.3224 522.598 55.6889H563.944C564.471 55.3378 564.778 54.5916 564.866 53.4505C565.041 52.3093 565.129 51.4754 565.129 50.9487V50.2903Z" fill="white"/>
<path d="M438.294 73.0698C436.012 71.8409 434.607 70.3047 434.081 68.4612V7.89145C434.695 5.78467 436.1 4.29237 438.294 3.41455H499.127C500.093 3.41455 500.883 4.20459 501.497 5.78467C502.112 7.36475 502.595 9.16429 502.946 11.1833C503.385 13.2023 503.648 15.1774 503.736 17.1086C503.911 18.952 503.999 20.181 503.999 20.7954H460.81C459.757 21.1466 459.142 21.8488 458.967 22.9022V53.5821C459.23 54.3722 459.494 54.8989 459.757 55.1622C460.02 55.4256 460.371 55.6011 460.81 55.6889H481.351C481.966 55.3378 482.361 55.0305 482.536 54.7672C482.8 54.4161 483.019 54.021 483.195 53.5821V38.5714H508.213V68.4612C507.774 69.6902 507.203 70.6558 506.501 71.3581C505.799 72.0603 504.965 72.6309 503.999 73.0698H438.294Z" fill="white"/>
<path d="M355.74 73.0698C353.457 71.8409 352.053 70.3047 351.526 68.4612V7.89145C352.141 5.78467 353.545 4.29237 355.74 3.41455H421.445C423.288 4.11681 424.693 5.60911 425.658 7.89145V68.4612C425.219 69.6902 424.649 70.6558 423.947 71.3581C423.244 72.0603 422.41 72.6309 421.445 73.0698H355.74ZM376.412 53.5821C376.676 54.3722 376.939 54.8989 377.202 55.1622C377.466 55.4256 377.817 55.6011 378.256 55.6889H398.797C399.411 55.3378 399.806 55.0305 399.982 54.7672C400.245 54.4161 400.465 54.021 400.64 53.5821V22.9022C400.201 21.5855 399.587 20.8832 398.797 20.7954H378.256C377.202 21.1466 376.588 21.8488 376.412 22.9022V53.5821Z" fill="white"/>
<path d="M268.716 73.0698V3.41455H338.898C339.776 3.76568 340.654 4.33626 341.531 5.1263C342.409 5.91635 342.936 6.6625 343.112 7.36476V18.4253C343.112 20.181 343.024 22.1122 342.848 24.219C342.76 26.2379 342.278 27.8619 341.4 29.0909C339.908 31.2854 338.635 33.085 337.581 34.4895C336.616 35.894 335.738 37.123 334.948 38.1763C335.913 39.1419 336.879 40.327 337.845 41.7315C338.81 43.136 339.776 44.6283 340.741 46.2084L341.4 47.2618C342.278 48.5785 342.76 50.2903 342.848 52.3971C343.024 54.4161 343.112 56.3034 343.112 58.059V69.1196C342.936 69.8219 342.409 70.568 341.531 71.3581C340.654 72.1481 339.776 72.7187 338.898 73.0698H268.716ZM316.382 20.7954H293.602V55.6889H316.382C317.172 55.6889 317.567 54.8989 317.567 53.3188C315.987 50.6853 314.495 48.403 313.09 46.4718C311.686 44.5406 309.842 42.3021 307.56 39.7564C307.121 39.4931 306.901 39.0542 306.901 38.4397C306.901 38.1763 306.945 37.9569 307.033 37.7813C307.121 37.518 307.209 37.2107 307.296 36.8596C309.052 34.4017 310.764 32.2071 312.432 30.2759C314.1 28.3447 315.811 25.9307 317.567 23.0339C317.567 22.4194 317.479 21.8927 317.304 21.4538C317.128 21.0149 316.821 20.7954 316.382 20.7954Z" fill="white"/>
</svg>
