<svg width="801" height="271" viewBox="0 0 801 271" fill="none" xmlns="http://www.w3.org/2000/svg">
<path d="M228.707 69.5552H86.3915C80.6396 69.5552 75.9767 74.218 75.9767 79.97V118.53C75.9767 124.282 80.6396 128.944 86.3915 128.944H185.083C190.834 128.944 195.497 133.607 195.497 139.359V198.785C195.497 204.537 190.834 209.2 185.083 209.2H10.623C4.87111 209.2 0.208252 213.863 0.208252 219.615V258.175C0.208252 263.927 4.8711 268.59 10.623 268.59H228.707C240.211 268.59 249.536 259.264 249.536 247.76V90.3847C249.536 78.8809 240.211 69.5552 228.707 69.5552Z" fill="black" stroke="black" stroke-width="0.416591"/>
<path d="M163.967 0H10.6228C4.87086 0 0.208008 4.66285 0.208008 10.4148V188.085C0.208008 193.836 4.87086 198.499 10.6228 198.499H174.382C180.133 198.499 184.796 193.836 184.796 188.085V150.06C184.796 144.308 180.133 139.645 174.382 139.645H75.4094C69.6574 139.645 64.9946 134.982 64.9946 129.23V69.269C64.9946 63.5171 69.6574 58.8543 75.4094 58.8543H174.382C180.133 58.8543 184.796 54.1914 184.796 48.4395V20.8296C184.796 9.32571 175.471 0 163.967 0Z" fill="black"/>
<circle cx="219.839" cy="29.701" r="29.7005" fill="black"/>
<path d="M639.997 270.112C637.715 268.883 636.311 267.347 635.784 265.503V204.933C636.398 202.827 637.803 201.334 639.997 200.457H705.703C707.546 201.159 708.95 202.651 709.916 204.933V265.503C709.477 266.732 708.907 267.698 708.204 268.4C707.502 269.102 706.668 269.673 705.703 270.112H639.997ZM660.67 250.624C660.934 251.414 661.197 251.941 661.46 252.204C661.724 252.468 662.075 252.643 662.514 252.731H683.055C683.669 252.38 684.064 252.073 684.24 251.809C684.503 251.458 684.723 251.063 684.898 250.624V219.944C684.459 218.627 683.845 217.925 683.055 217.837H662.514C661.46 218.189 660.846 218.891 660.67 219.944V250.624Z" fill="black"/>
<path d="M602.354 270.112V200.457H627.241V270.112H602.354Z" fill="black"/>
<path d="M521.851 200.457H589.531C591.374 201.159 592.779 202.651 593.745 204.933V265.503C593.306 266.732 592.735 267.698 592.033 268.4C591.331 269.102 590.497 269.673 589.531 270.112H521.851V217.837H514.609C515.487 214.765 516.452 211.78 517.506 208.884C518.647 205.899 520.095 203.09 521.851 200.457ZM546.737 217.837V252.731H566.883C567.849 252.029 568.463 251.326 568.727 250.624V219.944C568.288 218.627 567.673 217.925 566.883 217.837H546.737Z" fill="black"/>
<path d="M458.916 250.624C459.179 251.414 459.443 251.941 459.706 252.204C459.969 252.468 460.32 252.643 460.759 252.731H481.3C481.915 252.38 482.31 252.073 482.485 251.809C482.749 251.458 482.968 251.063 483.144 250.624V200.457H508.162V265.503C507.723 266.732 507.152 267.698 506.45 268.4C505.748 269.102 504.914 269.673 503.948 270.112H438.243C435.961 268.883 434.556 267.347 434.03 265.503V200.457H458.916V250.624Z" fill="black"/>
<path d="M402.109 217.837V270.112H377.091V217.837H352.073C352.863 215.028 353.828 212.175 354.97 209.279C356.111 206.382 357.559 203.441 359.315 200.457H427.522C426.38 203.266 424.976 206.118 423.308 209.015C421.728 211.824 419.928 214.765 417.909 217.837H402.109Z" fill="black"/>
<path d="M319.093 247.332C319.093 246.718 318.917 245.972 318.566 245.094C318.303 244.128 317.776 243.645 316.986 243.645H274.85C273.007 242.943 271.602 241.539 270.637 239.432V204.933C271.164 202.914 272.568 201.422 274.85 200.457H347.534C346.656 202.914 345.34 205.504 343.584 208.225C341.916 210.947 339.59 214.151 336.605 217.837H297.235C296.884 217.837 296.62 218.013 296.445 218.364C296.269 218.715 296.138 219.154 296.05 219.681C295.962 220.208 295.874 220.734 295.786 221.261C295.786 221.788 295.786 222.183 295.786 222.446V223.763C295.786 224.377 295.83 225.079 295.918 225.87C296.094 226.572 296.533 226.923 297.235 226.923H339.765C341.872 228.064 343.233 229.6 343.847 231.531V265.503C343.321 267.698 341.96 269.234 339.765 270.112H266.95C268.354 267.127 269.715 264.143 271.032 261.158C272.436 258.173 274.28 255.364 276.562 252.731H317.908C318.434 252.38 318.742 251.634 318.829 250.492C319.005 249.351 319.093 248.517 319.093 247.991V247.332Z" fill="black"/>
<path d="M725.681 171.591V156.58C725.681 154.824 725.725 152.937 725.813 150.918C725.989 148.811 726.559 147.1 727.525 145.783C729.719 142.71 731.475 140.209 732.792 138.277C734.196 136.346 735.293 134.854 736.083 133.801C736.874 132.659 737.4 131.913 737.664 131.562C737.927 131.123 738.103 130.816 738.19 130.64V129.982L723.048 101.936H749.383L761.628 121.555L773.874 101.936H800.208L785.066 129.982V130.64C785.066 130.728 785.198 130.991 785.461 131.43C785.812 131.869 786.383 132.659 787.173 133.801C787.963 134.854 789.016 136.346 790.333 138.277C791.738 140.209 793.537 142.71 795.732 145.783C796.609 147.1 797.092 148.811 797.18 150.918C797.356 152.937 797.443 154.824 797.443 156.58V171.591H771.899V151.84C769.002 147.275 765.578 142.667 761.628 138.014C759.609 140.296 757.722 142.623 755.966 144.993C754.211 147.275 752.674 149.557 751.358 151.84V171.591H725.681Z" fill="black"/>
<path d="M691.595 171.591V101.936H716.481V171.591H691.595Z" fill="black"/>
<path d="M658.026 171.591V135.381C657.675 136.258 657.105 137.268 656.315 138.409C655.525 139.55 654.691 140.604 653.813 141.569C652.935 142.535 652.101 143.369 651.311 144.071C650.521 144.773 649.994 145.124 649.731 145.124H633.667V171.591H608.781V101.936H633.667V128.402H658.026V101.936H683.044V171.591H658.026Z" fill="black"/>
<path d="M525.97 101.936H596.152C597.03 102.287 597.908 102.857 598.786 103.647C599.664 104.437 600.19 105.183 600.366 105.886V116.946C600.366 118.702 600.278 120.633 600.103 122.74C600.015 124.759 599.532 126.383 598.654 127.612C596.46 130.772 594.66 133.318 593.256 135.249C591.939 137.18 590.885 138.672 590.095 139.726C589.305 140.779 588.735 141.525 588.384 141.964C588.12 142.403 587.989 142.667 587.989 142.754L584.828 145.651H560.601C560.162 144.949 559.854 144.378 559.679 143.939C559.503 143.413 559.416 142.93 559.416 142.491C559.416 141.789 559.854 140.867 560.732 139.726C563.717 136.566 566.35 133.493 568.633 130.509C571.003 127.436 573.066 124.452 574.821 121.555C574.821 120.94 574.734 120.414 574.558 119.975C574.382 119.536 574.075 119.316 573.636 119.316H550.857V171.591H525.97V101.936Z" fill="black"/>
<path d="M432.57 169.484C432.658 168.343 432.921 167.246 433.36 166.192L458.51 106.281C458.773 105.579 459.124 104.788 459.563 103.911C460.002 103.033 460.661 102.374 461.538 101.936H490.375C490.638 101.936 490.946 102.111 491.297 102.462C491.648 102.813 491.999 103.252 492.35 103.779C492.701 104.218 492.965 104.657 493.14 105.096C493.403 105.535 493.579 105.886 493.667 106.149L519.475 171.591H493.14L487.346 156.448C486.381 158.555 485.064 160.969 483.396 163.69C481.728 166.412 479.973 169.045 478.129 171.591H433.624C433.36 171.591 433.097 171.371 432.834 170.932C432.658 170.406 432.57 169.923 432.57 169.484ZM464.435 154.21H486.556L476.154 123.793L464.435 154.21Z" fill="black"/>
<path d="M351.478 101.936H421.66C422.538 102.287 423.415 102.857 424.293 103.647C425.171 104.437 425.698 105.183 425.873 105.886V116.946C425.873 118.702 425.785 120.633 425.61 122.74C425.522 124.759 425.039 126.383 424.162 127.612C421.967 130.772 420.167 133.318 418.763 135.249C417.446 137.18 416.393 138.672 415.603 139.726C414.813 140.779 414.242 141.525 413.891 141.964C413.628 142.403 413.496 142.667 413.496 142.754V143.544L428.638 171.591H402.304L386.108 145.651C385.669 144.949 385.362 144.378 385.186 143.939C385.011 143.413 384.923 142.93 384.923 142.491C384.923 141.789 385.362 140.867 386.24 139.726C389.224 136.566 391.77 133.493 393.877 130.509C396.071 127.524 398.222 124.539 400.329 121.555C400.329 120.94 400.241 120.414 400.065 119.975C399.89 119.536 399.582 119.316 399.144 119.316H376.364V171.591H351.478V101.936Z" fill="black"/>
<path d="M273.138 171.591C270.855 170.362 269.451 168.826 268.924 166.982V106.412C269.539 104.306 270.943 102.813 273.138 101.936H333.971C334.936 101.936 335.726 102.726 336.341 104.306C336.955 105.886 337.438 107.685 337.789 109.704C338.228 111.723 338.492 113.698 338.579 115.63C338.755 117.473 338.843 118.702 338.843 119.316H295.654C294.6 119.668 293.986 120.37 293.81 121.423V152.103C294.074 152.893 294.337 153.42 294.6 153.683C294.864 153.947 295.215 154.122 295.654 154.21H316.195C316.809 153.859 317.204 153.552 317.38 153.288C317.643 152.937 317.863 152.542 318.038 152.103V137.092H343.056V166.982C342.617 168.211 342.047 169.177 341.344 169.879C340.642 170.581 339.808 171.152 338.843 171.591H273.138Z" fill="black"/>
<path d="M565.337 50.2903C565.337 49.6758 565.161 48.9297 564.81 48.0519C564.547 47.0862 564.02 46.6034 563.23 46.6034H521.095C519.251 45.9012 517.847 44.4967 516.881 42.3899V7.89145C517.408 5.87246 518.812 4.38016 521.095 3.41455H593.778C592.901 5.87245 591.584 8.46203 589.828 11.1833C588.16 13.9045 585.834 17.1086 582.85 20.7954H543.479C543.128 20.7954 542.865 20.971 542.689 21.3221C542.514 21.6733 542.382 22.1122 542.294 22.6389C542.206 23.1656 542.119 23.6923 542.031 24.219C542.031 24.7457 542.031 25.1407 542.031 25.404V26.7208C542.031 27.3352 542.075 28.0375 542.163 28.8275C542.338 29.5298 542.777 29.8809 543.479 29.8809H586.01C588.117 31.0221 589.477 32.5583 590.092 34.4895V68.4612C589.565 70.6558 588.204 72.192 586.01 73.0698H513.194C514.599 70.0852 515.959 67.1006 517.276 64.116C518.681 61.1314 520.524 58.3224 522.807 55.6889H564.152C564.679 55.3378 564.986 54.5916 565.074 53.4505C565.249 52.3093 565.337 51.4754 565.337 50.9487V50.2903Z" fill="black"/>
<path d="M438.502 73.0698C436.22 71.8409 434.815 70.3047 434.289 68.4612V7.89145C434.903 5.78467 436.308 4.29237 438.502 3.41455H499.335C500.301 3.41455 501.091 4.20459 501.705 5.78467C502.32 7.36475 502.803 9.16429 503.154 11.1833C503.593 13.2023 503.856 15.1774 503.944 17.1086C504.119 18.952 504.207 20.181 504.207 20.7954H461.018C459.965 21.1466 459.35 21.8488 459.175 22.9022V53.5821C459.438 54.3722 459.702 54.8989 459.965 55.1622C460.228 55.4256 460.579 55.6011 461.018 55.6889H481.559C482.174 55.3378 482.569 55.0305 482.744 54.7672C483.008 54.4161 483.227 54.021 483.403 53.5821V38.5714H508.421V68.4612C507.982 69.6902 507.411 70.6558 506.709 71.3581C506.007 72.0603 505.173 72.6309 504.207 73.0698H438.502Z" fill="black"/>
<path d="M355.948 73.0698C353.665 71.8409 352.261 70.3047 351.734 68.4612V7.89145C352.349 5.78467 353.753 4.29237 355.948 3.41455H421.653C423.496 4.11681 424.901 5.60911 425.866 7.89145V68.4612C425.427 69.6902 424.857 70.6558 424.155 71.3581C423.452 72.0603 422.618 72.6309 421.653 73.0698H355.948ZM376.62 53.5821C376.884 54.3722 377.147 54.8989 377.41 55.1622C377.674 55.4256 378.025 55.6011 378.464 55.6889H399.005C399.619 55.3378 400.014 55.0305 400.19 54.7672C400.453 54.4161 400.673 54.021 400.848 53.5821V22.9022C400.409 21.5855 399.795 20.8832 399.005 20.7954H378.464C377.41 21.1466 376.796 21.8488 376.62 22.9022V53.5821Z" fill="black"/>
<path d="M268.924 73.0698V3.41455H339.106C339.984 3.76568 340.862 4.33626 341.739 5.1263C342.617 5.91635 343.144 6.6625 343.32 7.36476V18.4253C343.32 20.181 343.232 22.1122 343.056 24.219C342.968 26.2379 342.486 27.8619 341.608 29.0909C340.116 31.2854 338.843 33.085 337.789 34.4895C336.824 35.894 335.946 37.123 335.156 38.1763C336.121 39.1419 337.087 40.327 338.053 41.7315C339.018 43.136 339.984 44.6283 340.949 46.2084L341.608 47.2618C342.486 48.5785 342.968 50.2903 343.056 52.3971C343.232 54.4161 343.32 56.3034 343.32 58.059V69.1196C343.144 69.8219 342.617 70.568 341.739 71.3581C340.862 72.1481 339.984 72.7187 339.106 73.0698H268.924ZM316.59 20.7954H293.81V55.6889H316.59C317.38 55.6889 317.775 54.8989 317.775 53.3188C316.195 50.6853 314.703 48.403 313.298 46.4718C311.894 44.5406 310.05 42.3021 307.768 39.7564C307.329 39.4931 307.109 39.0542 307.109 38.4397C307.109 38.1763 307.153 37.9569 307.241 37.7813C307.329 37.518 307.417 37.2107 307.504 36.8596C309.26 34.4017 310.972 32.2071 312.64 30.2759C314.308 28.3447 316.019 25.9307 317.775 23.0339C317.775 22.4194 317.687 21.8927 317.512 21.4538C317.336 21.0149 317.029 20.7954 316.59 20.7954Z" fill="black"/>
</svg>
