<?xml version="1.0" encoding="UTF-8"?>
<svg id="Layer_2" data-name="Layer 2" xmlns="http://www.w3.org/2000/svg" viewBox="0 0 500 500">
  <g id="Guides">
    <g id="H-Guide">
      <path d="M133.8,261.34h209.9c11.05,0,20,8.95,20,20v64.97c0,11.05-8.95,20-20,20H20c-11.05,0-20-8.95-20-20V20C0,8.95,8.95,0,20,0h303.7c22.09,0,40,17.91,40,40v56.14c0,11.05-8.95,20-20,20h-209.9c-11.05,0-20,8.95-20,20v105.2c0,11.05,8.95,20,20,20Z"/>
      <path d="M500,186.31v263.69c0,27.61-22.39,50-50,50H20c-11.05,0-20-8.95-20-20v-73.8c0-11.05,8.95-20,20-20h238.71s105.15,0,105.15,0c11.05,0,20-8.95,20-20v-104.92c0-11.05-8.95-20-20-20h-210.16c-11.05,0-20-8.95-20-20v-64.98c0-11.05,8.95-20,20-20h296.3c27.61,0,50,22.39,50,50Z"/>
      <circle cx="441.93" cy="58.07" r="58.07"/>
    </g>
  </g>
</svg>